<svg id="Layer_1" enable-background="new 0 0 512 512" height="512" viewBox="0 0 512 512" width="512" xmlns="http://www.w3.org/2000/svg"><g><path d="m357.376 41.136 38.793 38.373c1.424 1.409 3.6 1.734 5.39.805l48.75-25.306c4.002-2.077 8.287 2.161 6.253 6.186l-24.774 49.022c-.91 1.8-.561 3.972.863 5.381l38.793 38.373c3.185 3.15.448 8.565-3.994 7.902l-54.105-8.076c-1.986-.297-3.947.721-4.857 2.521l-24.774 49.022c-2.034 4.024-8.01 3.132-8.721-1.302l-8.664-54.013c-.318-1.983-1.878-3.526-3.865-3.823l-54.105-8.076c-4.442-.663-5.399-6.629-1.397-8.707l48.75-25.306c1.79-.929 2.786-2.901 2.468-4.884l-8.664-54.013c-.709-4.434 4.676-7.229 7.86-4.079z" fill="#65e0cc"/><g><path d="m471.445 153.97-38.793-38.373c-1.424-1.409-1.773-3.581-.863-5.381l24.774-49.022c2.034-4.024-2.251-8.263-6.253-6.186l-29.181 15.148-20.245 40.06c-.91 1.8-.561 3.972.863 5.381l38.793 38.373c1.2 1.187 1.558 2.696 1.302 4.079l25.61 3.823c4.441.664 7.178-4.751 3.993-7.902z" fill="#4ad4bd"/></g><g><path d="m298.964 426.764c-118.281.431-214.16-95.448-213.729-213.729.341-93.584 60.564-173.379 144.246-202.985 5.845-2.068 3.804-10.799-2.336-9.999-125.055 16.301-226.668 125.165-227.143 255.836-.517 141.963 114.148 256.628 256.111 256.111 130.669-.476 239.534-102.087 255.835-227.144.8-6.14-7.931-8.181-9.999-2.336-29.606 83.683-109.401 143.905-202.985 144.246z" fill="#65e0cc"/></g><g fill="#4ad4bd"><path d="m501.95 282.518c-8.692 24.567-21.713 47.107-38.135 66.709-36.964 89.549-123.063 156.128-224.193 162.29 5.454.326 10.949.502 16.491.481 130.67-.476 239.534-102.087 255.835-227.144.801-6.14-7.93-8.181-9.998-2.336z"/><path d="m198.576 10.05c-83.682 29.607-143.904 109.401-144.246 202.985-.431 118.281 95.448 214.16 213.729 213.729 4.918-.018 9.795-.211 14.631-.554-110.676-7.942-197.866-100.369-197.454-213.175.341-93.584 60.564-173.379 144.246-202.985 5.845-2.068 3.804-10.799-2.336-9.998-8.499 1.108-16.884 2.657-25.142 4.598.235 2.164-.782 4.464-3.428 5.4z"/></g></g></svg>